<svg width="24" height="24" viewBox="0 0 24 24" fill="none" xmlns="http://www.w3.org/2000/svg">
<g id="fluent-mdl2:add-friend" clip-path="url(#clip0_428_1067)">
<path id="Vector" d="M18 18.35H18.35V18V14.5312V14.4244L18.2903 14.3358C17.7394 13.5175 17.0824 12.8036 16.3199 12.1952C15.7271 11.7222 15.0899 11.3275 14.4086 11.0113C14.6709 10.8084 14.9113 10.5878 15.1293 10.3495C15.483 9.96299 15.7912 9.53961 16.0539 9.0799C16.3197 8.61475 16.519 8.12045 16.6517 7.59787C16.784 7.07709 16.85 6.54423 16.85 6C16.85 5.12659 16.6849 4.29855 16.3533 3.51921C16.0236 2.74449 15.5686 2.06922 14.9879 1.49683C14.4091 0.926294 13.7356 0.476401 12.9703 0.147228C12.198 -0.184941 11.3734 -0.35 10.5 -0.35C9.62659 -0.35 8.79855 -0.184941 8.01921 0.146696C7.24449 0.476364 6.56922 0.931428 5.99683 1.51211C5.42629 2.09092 4.9764 2.76435 4.64723 3.52968C4.31506 4.30197 4.15 5.1266 4.14999 6L4.15001 6.00257C4.15823 7.12073 4.42202 8.14818 4.94495 9.07784C5.36324 9.82148 5.91447 10.4625 6.59529 11.0006C5.90603 11.3101 5.27436 11.697 4.7014 12.1618C3.97334 12.7523 3.34171 13.4284 2.80731 14.1895C2.2708 14.9536 1.86043 15.7868 1.57636 16.6877C1.29185 17.59 1.15 18.5279 1.15 19.5V19.85H1.5H3H3.35V19.5C3.35 18.8434 3.43575 18.2112 3.60653 17.6023C3.77825 16.9901 4.02037 16.4207 4.33249 15.893C4.64614 15.3628 5.01941 14.8776 5.45272 14.4368C5.88391 13.9981 6.36278 13.627 6.88987 13.3226C7.41828 13.0175 7.98876 12.7786 8.60234 12.6065C9.21118 12.4358 9.84338 12.35 10.5 12.35C11.3509 12.35 12.1617 12.4917 12.9346 12.7741C13.7114 13.0579 14.4072 13.4527 15.0243 13.9582C15.6418 14.4642 16.1672 15.0674 16.6006 15.7697C17.0314 16.468 17.3331 17.2341 17.5048 18.0704L17.5622 18.35H17.8477H18ZM14.65 6L14.65 6.00437C14.6572 6.58141 14.5493 7.11727 14.3284 7.61609C14.103 8.12519 13.8028 8.56549 13.4283 8.94001C13.0547 9.31365 12.6157 9.60927 12.1082 9.82674C11.6065 10.0417 11.0716 10.15 10.5 10.15C9.91996 10.15 9.38118 10.0415 8.88006 9.82674C8.37404 9.60987 7.93578 9.31129 7.56233 8.93066C7.18646 8.54756 6.89008 8.1069 6.67254 7.60654C6.4585 7.11426 6.35 6.58007 6.35 6C6.35 5.43685 6.45803 4.90119 6.67396 4.39013C6.89104 3.87639 7.18955 3.43496 7.56934 3.06233C7.95244 2.68646 8.3931 2.39008 8.89346 2.17254C9.38574 1.9585 9.91993 1.85 10.5 1.85V1.85003L10.5045 1.84997C11.0645 1.84279 11.5972 1.95017 12.106 2.17232C12.6228 2.39796 13.0663 2.69801 13.44 3.07171C13.8137 3.44535 14.1093 3.88435 14.3267 4.39178C14.5417 4.89345 14.65 5.4284 14.65 6ZM24.35 19.5V19.15H24H21.35V16.5V16.15H21H19.5H19.15V16.5V19.15H16.5H16.15V19.5V21V21.35H16.5H19.15V24V24.35H19.5H21H21.35V24V21.35H24H24.35V21V19.5Z" fill="#FCFCFC" stroke="#FCFCFC" stroke-width="0.7"/>
</g>
<defs>
<clipPath id="clip0_428_1067">
<rect width="24" height="24" fill="white"/>
</clipPath>
</defs>
</svg>
